<?xml version="1.0" encoding="utf-8"?>
<svg version="1.1" xmlns="http://www.w3.org/2000/svg" xmlns:xlink="http://www.w3.org/1999/xlink" x="0px" y="0px"
	 viewBox="0 0 500 500" style="enable-background:new 0 0 500 500;" xml:space="preserve">
<g id="BACKGROUND">
</g>
<g id="OBJECTS">
	<g>
		<g>
			<path style="fill:#EFBAAC;" d="M128.262,289.981c14.412,11.2,19.432,30.601,21.536,48.732
				c2.104,18.13,2.372,37.095,10.627,53.373c7.001,13.805,19.593,23.3,26.833,36.513c13.012,23.746,23.363,46.912,29.075,71.401
				h166.049c-23.758-34.187-40.059-72.016-40.635-116.542L184.362,253.76c-16.166,1.857-32.445-4.013-46.05-12.939
				c-13.606-8.926-24.987-20.78-36.437-32.342c-2.26-2.282-4.859-4.708-8.07-4.804c-5.316-0.16-8.517,5.986-9.065,11.276
				c-1.207,11.643,5.33,26.981,10.502,37.253C103.026,267.664,114.807,279.525,128.262,289.981z"/>
		</g>
		<g>
			<g>
				<g>
					<path style="fill:#9ADAC7;" d="M37.474,244.793c0.08-1.991,2.484-2.937,4.465-3.157c7.599-0.845,15.089,1.698,21.909,5.335
						c-3.289-3.881-6.422-7.895-9.397-12.02c-3.175-2.251-6.22-4.686-9.105-7.298c-3.119-2.823-6.109-5.919-7.944-9.706
						c-0.501-1.033-0.917-2.142-0.906-3.29s0.523-2.345,1.515-2.923c1.614-0.939,3.655,0.062,5.113,1.228
						c3.644,2.915,6.267,6.912,8.443,11.04c1.828,3.469,3.388,7.077,5.225,10.538c3.345,4.592,6.889,9.043,10.633,13.318
						c-3.089-8.333-5.025-17.492-2.467-25.969c0.576-1.908,1.941-4.101,3.914-3.819c1.601,0.229,2.464,1.98,2.91,3.535
						c2.635,9.188,0.227,18.993-2.699,28.113c5.151,5.727,10.654,11.128,16.48,16.138c-3.691-7.74-6.275-16.309-4.657-24.674
						c0.378-1.956,1.514-4.277,3.505-4.197c1.616,0.065,2.653,1.719,3.255,3.22c3.486,8.695,2.214,18.472,0.296,27.679
						c5.715,4.736,11.722,9.103,18.006,13.026c-4.923-7.233-8.901-15.503-8.507-24.2c0.09-1.991,0.876-4.452,2.857-4.662
						c1.609-0.171,2.874,1.315,3.688,2.713c4.752,8.162,4.878,18.115,4.302,27.571c5.875,3.528,11.974,6.683,18.288,9.399
						c-5.244-6.556-9.578-14.123-9.959-22.444c-0.091-1.991,0.467-4.513,2.422-4.903c1.586-0.316,2.982,1.048,3.92,2.366
						c5.324,7.485,6.446,17.056,6.767,26.287c4.959,1.999,10.039,3.738,15.237,5.185c1.347,0.375,0.59,2.404-0.746,2.032
						c-4.991-1.389-9.874-3.046-14.645-4.94c-8.541,4.306-17.839,8.202-27.313,7.034c-1.605-0.198-3.469-0.777-3.945-2.323
						c-0.587-1.904,1.367-3.595,3.161-4.462c7.294-3.521,15.738-3.418,23.793-2.035c-6.269-2.72-12.328-5.865-18.165-9.378
						c-8.652,3.362-17.942,6.138-26.967,4.18c-1.581-0.343-3.384-1.089-3.718-2.672c-0.411-1.95,1.688-3.456,3.554-4.156
						c7.17-2.688,15.069-2.055,22.583-0.195c-5.493-3.56-10.773-7.452-15.824-11.635c-9.128,2.103-18.83,3.561-27.561,0.279
						c-1.514-0.569-3.19-1.57-3.29-3.184c-0.123-1.989,2.172-3.174,4.12-3.595c7.72-1.668,15.695,0.272,23.047,3.37
						c-5.57-4.877-10.838-10.113-15.788-15.64c-9.118,1.107-18.68,1.462-26.854-2.605C38.975,247.575,37.41,246.409,37.474,244.793z
						"/>
				</g>
				<g>
					<path style="fill:#9ADAC7;" d="M124.044,145.67c1.057-1.69,3.613-1.318,5.443-0.528c7.018,3.033,12.262,8.956,16.381,15.496
						c-0.932-5.001-1.663-10.04-2.2-15.097c-1.641-3.529-3.078-7.154-4.289-10.852c-1.309-3.998-2.37-8.17-2.086-12.367
						c0.077-1.145,0.266-2.315,0.845-3.307c0.579-0.991,1.617-1.778,2.765-1.787c1.867-0.015,3.144,1.866,3.831,3.602
						c1.719,4.338,2.015,9.11,1.858,13.773c-0.133,3.918-0.567,7.826-0.687,11.742c0.628,5.646,1.499,11.269,2.63,16.838
						c1.449-8.769,4.309-17.682,10.734-23.775c1.446-1.371,3.719-2.599,5.292-1.375c1.277,0.993,1.158,2.941,0.774,4.512
						c-2.267,9.286-9.22,16.607-16.283,23.075c1.634,7.527,3.734,14.946,6.31,22.186c0.633-8.552,2.637-17.275,8.19-23.736
						c1.299-1.511,3.435-2.964,5.125-1.907c1.371,0.858,1.452,2.808,1.23,4.41c-1.284,9.28-7.237,17.14-13.467,24.184
						c2.614,6.946,5.666,13.718,9.178,20.24c-0.689-8.722-0.042-17.877,4.611-25.234c1.065-1.684,2.968-3.432,4.793-2.632
						c1.481,0.649,1.844,2.567,1.858,4.184c0.08,9.444-4.746,18.15-9.934,26.076c3.352,5.977,7.085,11.741,11.221,17.23
						c-1.303-8.294-1.315-17.014,2.48-24.429c0.908-1.774,2.644-3.688,4.534-3.057c1.534,0.512,2.07,2.389,2.231,3.998
						c0.912,9.14-2.86,18.008-7.158,26.183c3.315,4.195,6.865,8.224,10.661,12.058c0.984,0.993-0.68,2.38-1.656,1.394
						c-3.645-3.681-7.065-7.541-10.269-11.552c-9.553-0.496-19.558-1.722-27.207-7.435c-1.296-0.968-2.627-2.395-2.274-3.974
						c0.435-1.945,2.97-2.445,4.958-2.307c8.08,0.559,15.362,4.835,21.672,10.03c-4.096-5.47-7.798-11.206-11.125-17.151
						c-9.18-1.37-18.625-3.566-25.491-9.741c-1.203-1.082-2.399-2.624-1.904-4.164c0.61-1.897,3.18-2.165,5.147-1.847
						c7.559,1.221,14.105,5.687,19.708,11.028c-3.005-5.816-5.661-11.813-7.973-17.95c-8.97-2.7-18.118-6.244-24.073-13.424
						c-1.033-1.245-1.992-2.945-1.278-4.396c0.879-1.788,3.46-1.679,5.361-1.079c7.532,2.379,13.495,8.018,18.344,14.354
						c-2.419-6.997-4.397-14.156-5.956-21.41c-8.467-3.559-16.947-7.993-22.029-15.577
						C123.967,148.83,123.186,147.042,124.044,145.67z"/>
				</g>
				<g>
					<g>
						<path style="fill:#9C1CA0;" d="M183.305,314.89c-5.053-5.64-12.127-8.677-19.098-11.109
							c-28.743-10.028-60.581-12.334-89.152-1.77c-9.212,3.406-18.02,8.433-22.418,18.084
							c-7.715,16.931,18.075,26.685,29.145,29.424c15.631,3.867,32.164,3.563,47.969,1.085c17.238-2.702,34.207-8.783,48.855-18.9
							c4.187-2.892,8.246-6.019,12.361-9.023"/>
					</g>
					<path style="fill:#712175;" d="M64.498,327.372c6.163-0.804,12.635-1.612,19.343-2.39c-1.69,3.243-5.158,10.893-9.171,19.808
						c-0.335,0.745-0.665,1.482-0.991,2.208c0.541,0.2,1.075,0.393,1.601,0.575c0.313-0.685,0.629-1.379,0.945-2.084
						c2.695-5.995,4.976-11.491,6.523-15.513c0.84-2.183,1.463-3.924,1.826-5.079c6.75-0.779,13.737-1.526,20.902-2.206
						c5.153-0.476,10.218-0.893,15.181-1.263c-0.499,0.625-1.791,3.027-3.633,6.596c-2.763,5.376-5.528,10.756-8.546,16.627
						c-1.399,2.675-2.74,5.24-4.056,7.757c0.61,0.014,1.219,0.027,1.829,0.031c1.208-2.197,2.467-4.548,3.741-7.004
						c3.368-6.5,6.199-12.496,8.121-16.893c1.695-3.876,2.697-6.499,2.767-7.132c8.985-0.667,17.617-1.169,25.732-1.526
						c3.208-0.105,6.333-0.221,9.371-0.315c-1.342,3.748-3.962,12.496-6.774,22.749c-0.376,1.371-0.741,2.715-1.093,4.028
						c0.641-0.199,1.281-0.405,1.919-0.615c0.271-0.971,0.544-1.958,0.819-2.962c2.862-10.431,5.1-19.418,5.82-23.219
						c2.713-0.08,5.363-0.143,7.925-0.155c2.817-0.029,5.539-0.106,8.155-0.096c2.605,0.016,5.115,0.032,7.523,0.048
						c2.657-0.011,5.156,0.042,7.518,0.105l-1.102-1.121c-2.03-0.088-4.157-0.163-6.395-0.19c-2.413-0.051-4.928-0.103-7.538-0.158
						c-2.622-0.044-5.349,0-8.173-0.002c-2.249-0.014-4.575,0.016-6.942,0.06c-0.209-0.517-2.082-2.801-5.221-6.093
						c-3.464-3.635-8.497-8.433-14.431-13.294c-0.846-0.692-1.685-1.36-2.518-2.015c-1.1-0.164-2.201-0.314-3.304-0.453
						c1.54,1.204,3.125,2.466,4.742,3.788c5.886,4.822,11.004,9.438,14.665,12.834c2.482,2.3,4.294,3.997,5.274,4.814
						c-0.058,0.016-0.151,0.161-0.277,0.437c-3.243,0.068-6.581,0.165-10.02,0.253c-8.165,0.304-16.853,0.771-25.893,1.421
						c-2.267-2.553-10.176-10.128-19.784-18.901c-1.62-1.479-3.195-2.906-4.72-4.279c-0.693,0.109-1.386,0.218-2.076,0.339
						c1.792,1.664,3.679,3.403,5.646,5.199c9.194,8.394,17.151,15.334,20.23,17.694c-4.79,0.349-9.672,0.747-14.637,1.205
						c-6.938,0.659-13.703,1.392-20.251,2.164c-0.323-0.555-2.04-2.345-4.728-4.898c-3.115-2.959-7.534-6.922-12.557-11.132
						c-0.479-0.401-0.952-0.793-1.424-1.184c-0.525,0.294-1.043,0.598-1.555,0.912c0.62,0.519,1.248,1.046,1.884,1.579
						c8.967,7.504,16.364,13.772,18.061,14.759c-7.11,0.841-13.959,1.728-20.46,2.621c-4.496,0.633-8.82,1.265-12.964,1.891
						c0.061,0.488,0.153,0.968,0.269,1.44C55.72,328.564,60.024,327.97,64.498,327.372z M156.903,317.669
						c0.204,0.169,0.371,0.297,0.494,0.378c-0.165,0.003-0.327,0.005-0.492,0.009C156.921,317.868,156.922,317.735,156.903,317.669z
						"/>
				</g>
				<g>
					<g>
						<path style="fill:#D313C2;" d="M192.037,308.005c-0.013-29.835-8.016-59.629-22.953-85.454
							c-8.042-13.905-19.854-26.115-33.241-34.956c-11.169-7.377-24.3-14.479-37.799-16.017
							c-15.246-1.737-16.573,17.204-16.773,29.149c-0.249,14.904,4.482,29.521,11.09,42.882
							c19.059,38.538,54.715,68.51,95.957,80.659"/>
					</g>
					<path style="fill:#9113AD;" d="M104.103,249.685c11.662,0.138,22.219,0.358,29.861,0.603c3.821,0.122,6.914,0.251,9.051,0.378
						c0.501,0.03,0.945,0.06,1.339,0.089c-3.217-4.705-6.53-9.512-9.926-14.392c-5.085-7.285-10.076-14.329-14.906-21.076
						c-1.373,0.237-4.656,0.555-9.254,0.885c-6.173,0.444-14.711,0.897-24.149,1.2c-1.066,0.034-2.116,0.065-3.158,0.093
						c-0.119-0.561-0.222-1.125-0.33-1.687c1.129-0.036,2.274-0.073,3.433-0.11c9.428-0.302,17.964-0.564,24.147-0.7
						c4.361-0.095,7.544-0.12,9.05-0.044c-3.604-5.032-7.12-9.902-10.504-14.553c-7.271-9.949-13.939-18.942-19.741-26.649
						c0.332-0.251,0.682-0.478,1.043-0.691c5.901,7.616,12.645,16.528,19.965,26.41c3.366,4.566,6.855,9.349,10.425,14.294
						c0.105-1.259,0.399-3.435,0.842-6.275c0.716-4.588,1.82-10.9,3.142-17.852c0.536-2.817,1.066-5.513,1.575-8.036
						c0.499,0.279,0.996,0.559,1.49,0.844c-0.426,2.375-0.893,4.898-1.39,7.511c-1.324,6.96-2.617,13.243-3.636,17.772
						c-0.711,3.161-1.288,5.464-1.651,6.553c4.873,6.755,9.897,13.82,15.003,21.135c3.484,5.006,6.871,9.936,10.154,14.764
						c0.304-1.578,0.838-4.012,1.525-7.094c1.248-5.593,2.955-13.317,4.657-21.885c1.245-6.288,2.311-12.147,3.179-17.057
						c0.417,0.447,0.837,0.891,1.246,1.344c-0.682,4.716-1.595,10.197-2.753,16.044c-1.708,8.602-3.609,16.315-5.16,21.847
						c-0.946,3.379-1.747,5.942-2.277,7.417c5.012,7.377,9.775,14.51,14.223,21.268c2.957,4.515,5.773,8.855,8.44,13.005
						c0.287-1.541,0.989-4.501,1.962-8.479c1.451-5.926,3.475-14.102,5.604-23.159c0.867-3.696,1.682-7.239,2.438-10.559
						c0.371,0.9,0.716,1.809,1.072,2.715c-0.569,2.642-1.182,5.392-1.849,8.234c-2.135,9.079-4.349,17.23-6.101,23.084
						c-1.275,4.263-2.287,7.304-2.83,8.624c3.937,6.13,7.542,11.831,10.732,16.973c2.737,4.353,5.142,8.336,7.27,11.823
						c0.841,1.374,1.615,2.655,2.352,3.881l-0.268,1.172c-2.889-4.521-6.369-9.965-10.373-16.231
						c-3.332-5.194-7.083-10.973-11.17-17.204c-0.525,0.105-1.31,0.232-2.336,0.378c-2.004,0.29-4.913,0.627-8.515,0.979
						c-7.202,0.707-17.183,1.406-28.225,1.717c-0.75,0.021-1.495,0.039-2.235,0.056c-0.595-0.548-1.184-1.103-1.771-1.66
						c1.302-0.03,2.622-0.063,3.958-0.1c11.01-0.311,20.97-0.817,28.181-1.215c5.252-0.289,9.037-0.495,10.722-0.491
						c-2.654-4.045-5.447-8.276-8.369-12.676c-4.581-6.865-9.476-14.126-14.618-21.65c-0.47,0.028-1.024,0.053-1.68,0.077
						c-2.138,0.077-5.232,0.132-9.055,0.164c-7.646,0.064-18.209,0.034-29.876-0.104c-2.608-0.031-5.157-0.066-7.635-0.105
						c-0.318-0.559-0.628-1.122-0.939-1.684C98.284,249.622,101.158,249.65,104.103,249.685z"/>
				</g>
			</g>
			<g>
				<g>
					<path style="fill:#9ADAC7;" d="M462.526,244.793c-0.08-1.991-2.484-2.937-4.465-3.157c-7.599-0.845-15.089,1.698-21.909,5.335
						c3.289-3.881,6.422-7.895,9.397-12.02c3.175-2.251,6.22-4.686,9.105-7.298c3.119-2.823,6.109-5.919,7.944-9.706
						c0.501-1.033,0.917-2.142,0.906-3.29s-0.523-2.345-1.515-2.923c-1.614-0.939-3.655,0.062-5.113,1.228
						c-3.644,2.915-6.267,6.912-8.443,11.04c-1.828,3.469-3.388,7.077-5.225,10.538c-3.345,4.592-6.889,9.043-10.633,13.318
						c3.089-8.333,5.025-17.492,2.467-25.969c-0.576-1.908-1.941-4.101-3.914-3.819c-1.601,0.229-2.464,1.98-2.91,3.535
						c-2.635,9.188-0.227,18.993,2.699,28.113c-5.151,5.727-10.654,11.128-16.48,16.138c3.691-7.74,6.275-16.309,4.657-24.674
						c-0.378-1.956-1.514-4.277-3.505-4.197c-1.616,0.065-2.653,1.719-3.255,3.22c-3.486,8.695-2.214,18.472-0.296,27.679
						c-5.715,4.736-11.722,9.103-18.006,13.026c4.923-7.233,8.901-15.503,8.507-24.2c-0.09-1.991-0.876-4.452-2.857-4.662
						c-1.608-0.171-2.874,1.315-3.688,2.713c-4.752,8.162-4.878,18.115-4.302,27.571c-5.875,3.528-11.974,6.683-18.288,9.399
						c5.244-6.556,9.578-14.123,9.959-22.444c0.091-1.991-0.467-4.513-2.422-4.903c-1.586-0.316-2.982,1.048-3.92,2.366
						c-5.324,7.485-6.446,17.056-6.767,26.287c-4.959,1.999-10.039,3.738-15.237,5.185c-1.347,0.375-0.59,2.404,0.746,2.032
						c4.991-1.389,9.874-3.046,14.645-4.94c8.541,4.306,17.839,8.202,27.313,7.034c1.605-0.198,3.469-0.777,3.945-2.323
						c0.587-1.904-1.367-3.595-3.161-4.462c-7.294-3.521-15.738-3.418-23.793-2.035c6.269-2.72,12.328-5.865,18.165-9.378
						c8.652,3.362,17.942,6.138,26.967,4.18c1.581-0.343,3.384-1.089,3.718-2.672c0.411-1.95-1.688-3.456-3.554-4.156
						c-7.17-2.688-15.069-2.055-22.583-0.195c5.493-3.56,10.773-7.452,15.824-11.635c9.128,2.103,18.83,3.561,27.561,0.279
						c1.514-0.569,3.19-1.57,3.29-3.184c0.123-1.989-2.172-3.174-4.12-3.595c-7.72-1.668-15.695,0.272-23.047,3.37
						c5.57-4.877,10.838-10.113,15.788-15.64c9.118,1.107,18.68,1.462,26.854-2.605C461.025,247.575,462.59,246.409,462.526,244.793
						z"/>
				</g>
				<g>
					<path style="fill:#9ADAC7;" d="M375.956,145.67c-1.057-1.69-3.613-1.318-5.443-0.528c-7.018,3.033-12.262,8.956-16.381,15.496
						c0.932-5.001,1.663-10.04,2.2-15.097c1.641-3.529,3.078-7.154,4.289-10.852c1.309-3.998,2.37-8.17,2.086-12.367
						c-0.077-1.145-0.266-2.315-0.845-3.307s-1.617-1.778-2.765-1.787c-1.867-0.015-3.144,1.866-3.831,3.602
						c-1.719,4.338-2.015,9.11-1.858,13.773c0.133,3.918,0.567,7.826,0.687,11.742c-0.628,5.646-1.499,11.269-2.63,16.838
						c-1.449-8.769-4.309-17.682-10.734-23.775c-1.446-1.371-3.719-2.599-5.292-1.375c-1.277,0.993-1.158,2.941-0.774,4.512
						c2.267,9.286,9.22,16.607,16.283,23.075c-1.634,7.527-3.734,14.946-6.31,22.186c-0.633-8.552-2.637-17.275-8.19-23.736
						c-1.299-1.511-3.435-2.964-5.125-1.907c-1.371,0.858-1.452,2.808-1.23,4.41c1.284,9.28,7.237,17.14,13.467,24.184
						c-2.614,6.946-5.666,13.718-9.178,20.24c0.689-8.722,0.042-17.877-4.611-25.234c-1.065-1.684-2.968-3.432-4.793-2.632
						c-1.481,0.649-1.844,2.567-1.858,4.184c-0.08,9.444,4.746,18.15,9.934,26.076c-3.352,5.977-7.085,11.741-11.221,17.23
						c1.303-8.294,1.315-17.014-2.48-24.429c-0.908-1.774-2.644-3.688-4.534-3.057c-1.534,0.512-2.07,2.389-2.231,3.998
						c-0.912,9.14,2.86,18.008,7.158,26.183c-3.315,4.195-6.865,8.224-10.661,12.058c-0.984,0.993,0.68,2.38,1.656,1.394
						c3.646-3.681,7.065-7.541,10.269-11.552c9.553-0.496,19.558-1.722,27.207-7.435c1.296-0.968,2.627-2.395,2.274-3.974
						c-0.435-1.945-2.97-2.445-4.958-2.307c-8.08,0.559-15.362,4.835-21.672,10.03c4.096-5.47,7.798-11.206,11.125-17.151
						c9.18-1.37,18.625-3.566,25.491-9.741c1.203-1.082,2.399-2.624,1.904-4.164c-0.61-1.897-3.18-2.165-5.147-1.847
						c-7.559,1.221-14.105,5.687-19.708,11.028c3.005-5.816,5.661-11.813,7.973-17.95c8.97-2.7,18.118-6.244,24.073-13.424
						c1.033-1.245,1.992-2.945,1.278-4.396c-0.879-1.788-3.46-1.679-5.361-1.079c-7.532,2.379-13.495,8.018-18.344,14.354
						c2.419-6.997,4.397-14.156,5.956-21.41c8.467-3.559,16.947-7.993,22.029-15.577C376.033,148.83,376.814,147.042,375.956,145.67
						z"/>
				</g>
				<g>
					<g>
						<path style="fill:#9C1CA0;" d="M316.695,314.89c5.053-5.64,12.127-8.677,19.098-11.109
							c28.743-10.028,60.581-12.334,89.152-1.77c9.212,3.406,18.02,8.433,22.418,18.084c7.715,16.931-18.075,26.685-29.145,29.424
							c-15.631,3.867-32.164,3.563-47.969,1.085c-17.238-2.702-34.207-8.783-48.855-18.9c-4.187-2.892-8.246-6.019-12.361-9.023"/>
					</g>
					<path style="fill:#712175;" d="M448.408,329.147c0.116-0.473,0.208-0.952,0.269-1.44c-4.144-0.626-8.468-1.259-12.964-1.891
						c-6.501-0.893-13.35-1.78-20.46-2.621c1.697-0.988,9.094-7.256,18.061-14.759c0.636-0.534,1.264-1.06,1.884-1.579
						c-0.511-0.314-1.029-0.618-1.555-0.912c-0.472,0.391-0.945,0.782-1.424,1.184c-5.023,4.21-9.442,8.173-12.557,11.132
						c-2.688,2.553-4.405,4.342-4.728,4.898c-6.548-0.772-13.313-1.505-20.251-2.164c-4.965-0.458-9.846-0.856-14.637-1.205
						c3.079-2.359,11.036-9.3,20.23-17.694c1.967-1.796,3.855-3.535,5.646-5.199c-0.691-0.121-1.384-0.231-2.076-0.339
						c-1.524,1.373-3.1,2.8-4.72,4.279c-9.608,8.772-17.516,16.347-19.784,18.901c-9.041-0.651-17.728-1.117-25.893-1.421
						c-3.44-0.089-6.777-0.186-10.02-0.253c-0.127-0.276-0.219-0.422-0.277-0.437c0.981-0.817,2.793-2.515,5.274-4.814
						c3.661-3.396,8.779-8.012,14.665-12.834c1.617-1.322,3.202-2.583,4.742-3.788c-1.103,0.138-2.204,0.289-3.304,0.453
						c-0.833,0.655-1.672,1.324-2.518,2.015c-5.934,4.861-10.967,9.659-14.431,13.294c-3.14,3.292-5.012,5.575-5.221,6.093
						c-2.367-0.044-4.693-0.074-6.942-0.06c-2.824,0.001-5.552-0.043-8.173,0.002c-2.611,0.055-5.125,0.107-7.538,0.158
						c-2.238,0.026-4.365,0.102-6.395,0.19l-1.102,1.121c2.362-0.063,4.861-0.116,7.518-0.105c2.408-0.015,4.918-0.031,7.523-0.048
						c2.616-0.01,5.337,0.067,8.155,0.096c2.562,0.012,5.212,0.075,7.925,0.155c0.72,3.8,2.959,12.788,5.82,23.219
						c0.275,1.003,0.548,1.99,0.819,2.962c0.638,0.21,1.278,0.416,1.919,0.615c-0.353-1.313-0.717-2.657-1.093-4.028
						c-2.813-10.253-5.432-19.001-6.774-22.749c3.038,0.094,6.163,0.21,9.371,0.315c8.115,0.358,16.747,0.86,25.732,1.526
						c0.07,0.633,1.072,3.256,2.767,7.132c1.921,4.396,4.753,10.392,8.121,16.893c1.274,2.456,2.533,4.807,3.741,7.004
						c0.61-0.005,1.219-0.018,1.829-0.031c-1.316-2.517-2.657-5.082-4.056-7.757c-3.018-5.871-5.783-11.25-8.546-16.627
						c-1.843-3.569-3.135-5.972-3.633-6.596c4.962,0.37,10.027,0.787,15.181,1.263c7.165,0.68,14.152,1.427,20.902,2.206
						c0.363,1.155,0.986,2.897,1.826,5.079c1.546,4.021,3.828,9.518,6.523,15.513c0.317,0.705,0.632,1.399,0.945,2.084
						c0.526-0.182,1.06-0.374,1.601-0.575c-0.326-0.726-0.656-1.463-0.991-2.208c-4.013-8.915-7.481-16.565-9.171-19.808
						c6.708,0.778,13.18,1.586,19.343,2.39C439.976,327.97,444.28,328.564,448.408,329.147z M343.095,318.056
						c-0.165-0.003-0.327-0.005-0.492-0.009c0.123-0.081,0.29-0.209,0.494-0.378C343.078,317.735,343.079,317.868,343.095,318.056z"
						/>
				</g>
				<g>
					<g>
						<path style="fill:#D313C2;" d="M307.963,308.005c0.013-29.835,8.016-59.629,22.953-85.454
							c8.042-13.905,19.854-26.115,33.241-34.956c11.169-7.377,24.3-14.479,37.799-16.017c15.246-1.737,16.573,17.204,16.773,29.149
							c0.249,14.904-4.482,29.521-11.09,42.882c-19.059,38.538-54.715,68.51-95.957,80.659"/>
					</g>
					<path style="fill:#9113AD;" d="M395.897,249.685c-11.662,0.138-22.219,0.358-29.861,0.603
						c-3.821,0.122-6.914,0.251-9.051,0.378c-0.501,0.03-0.945,0.06-1.339,0.089c3.217-4.705,6.53-9.512,9.926-14.392
						c5.085-7.285,10.076-14.329,14.906-21.076c1.373,0.237,4.656,0.555,9.254,0.885c6.173,0.444,14.711,0.897,24.149,1.2
						c1.066,0.034,2.116,0.065,3.158,0.093c0.119-0.561,0.222-1.125,0.33-1.687c-1.129-0.036-2.274-0.073-3.433-0.11
						c-9.428-0.302-17.964-0.564-24.147-0.7c-4.361-0.095-7.544-0.12-9.05-0.044c3.604-5.032,7.12-9.902,10.504-14.553
						c7.271-9.949,13.939-18.942,19.741-26.649c-0.332-0.251-0.682-0.478-1.043-0.691c-5.901,7.616-12.645,16.528-19.965,26.41
						c-3.366,4.566-6.855,9.349-10.425,14.294c-0.105-1.259-0.399-3.435-0.842-6.275c-0.716-4.588-1.82-10.9-3.142-17.852
						c-0.536-2.817-1.066-5.513-1.575-8.036c-0.499,0.279-0.996,0.559-1.49,0.844c0.426,2.375,0.893,4.898,1.39,7.511
						c1.324,6.96,2.617,13.243,3.636,17.772c0.711,3.161,1.288,5.464,1.651,6.553c-4.873,6.755-9.897,13.82-15.003,21.135
						c-3.484,5.006-6.871,9.936-10.154,14.764c-0.304-1.578-0.838-4.012-1.525-7.094c-1.248-5.593-2.955-13.317-4.657-21.885
						c-1.245-6.288-2.311-12.147-3.179-17.057c-0.417,0.447-0.837,0.891-1.246,1.344c0.682,4.716,1.595,10.197,2.753,16.044
						c1.708,8.602,3.609,16.315,5.16,21.847c0.946,3.379,1.747,5.942,2.277,7.417c-5.012,7.377-9.775,14.51-14.223,21.268
						c-2.957,4.515-5.773,8.855-8.44,13.005c-0.287-1.541-0.989-4.501-1.962-8.479c-1.451-5.926-3.475-14.102-5.604-23.159
						c-0.867-3.696-1.682-7.239-2.438-10.559c-0.371,0.9-0.716,1.809-1.072,2.715c0.569,2.642,1.182,5.392,1.849,8.234
						c2.135,9.079,4.349,17.23,6.101,23.084c1.275,4.263,2.287,7.304,2.83,8.624c-3.937,6.13-7.542,11.831-10.732,16.973
						c-2.737,4.353-5.142,8.336-7.27,11.823c-0.841,1.374-1.615,2.655-2.352,3.881l0.268,1.172
						c2.889-4.521,6.369-9.965,10.373-16.231c3.332-5.194,7.083-10.973,11.17-17.204c0.525,0.105,1.31,0.232,2.336,0.378
						c2.004,0.29,4.913,0.627,8.515,0.979c7.202,0.707,17.182,1.406,28.225,1.717c0.75,0.021,1.495,0.039,2.235,0.056
						c0.595-0.548,1.184-1.103,1.771-1.66c-1.302-0.03-2.622-0.063-3.958-0.1c-11.01-0.311-20.97-0.817-28.181-1.215
						c-5.252-0.289-9.037-0.495-10.722-0.491c2.654-4.045,5.447-8.276,8.369-12.676c4.581-6.865,9.476-14.126,14.618-21.65
						c0.47,0.028,1.024,0.053,1.68,0.077c2.138,0.077,5.232,0.132,9.055,0.164c7.646,0.064,18.209,0.034,29.876-0.104
						c2.608-0.031,5.157-0.066,7.635-0.105c0.318-0.559,0.628-1.122,0.939-1.684C401.716,249.622,398.842,249.65,395.897,249.685z"
						/>
				</g>
			</g>
			<path style="fill:#FFB159;" d="M335.25,92.684L335.25,92.684c-2.491,0-4.51-2.019-4.51-4.51v-1.671c0-2.491,2.019-4.51,4.51-4.51
				l0,0c2.491,0,4.51,2.019,4.51,4.51v1.671C339.761,90.664,337.741,92.684,335.25,92.684z"/>
			<path style="fill:#FFB159;" d="M335.25,122.175L335.25,122.175c-2.491,0-4.51-2.019-4.51-4.51v-15.687
				c0-2.491,2.019-4.51,4.51-4.51l0,0c2.491,0,4.51,2.019,4.51,4.51v15.687C339.761,120.155,337.741,122.175,335.25,122.175z"/>
			<g>
				<path style="fill:#4037FF;" d="M324.838,363.678H174.275c-5.325,0-9.643-4.317-9.643-9.643V71.352
					c0-5.325,4.317-9.643,9.643-9.643h150.564c5.326,0,9.643,4.317,9.643,9.643v282.683
					C334.481,359.361,330.164,363.678,324.838,363.678z"/>
				<path style="fill:#EEDFEF;" d="M314.984,324.682H184.13c-4.12,0-7.46-3.34-7.46-7.46V90.171c0-4.12,3.34-7.46,7.46-7.46h130.854
					c4.12,0,7.46,3.34,7.46,7.46v227.052C322.443,321.342,319.103,324.682,314.984,324.682z"/>
				<circle style="fill:#FFFFFF;" cx="249.557" cy="344.546" r="13.417"/>
				<path style="fill:#FFB159;" d="M304.626,207.731H193.747c-2.52,0-4.563-2.043-4.563-4.563V98.514
					c0-2.52,2.043-4.563,4.563-4.563h110.879c2.52,0,4.563,2.043,4.563,4.563v104.654
					C309.189,205.688,307.146,207.731,304.626,207.731z"/>
				<path style="fill:#FFFFFF;" d="M266.959,75.675h-38.49c-1.388,0-2.514-1.125-2.514-2.514v0c0-1.388,1.125-2.514,2.514-2.514
					h38.49c1.388,0,2.514,1.125,2.514,2.514v0C269.472,74.55,268.347,75.675,266.959,75.675z"/>
				<g>
					<path style="fill:#D313C2;" d="M309.189,203.168v-54.865c-5.11-3.962-12.283-5.173-18.381-2.98
						c0.04-11.803-3.972-23.899-12.387-32.176c-8.415-8.277-21.494-12.084-32.588-8.053c-4.141,1.504-7.514,2.907-11.954,2.754
						c-3.266-0.113-6.093,0.826-8.987,2.434c-6.256,3.477-11.015,9.675-13.06,16.504c-1.819,6.073-1.878,12.507-2.2,18.838
						c-0.055,1.085-0.175,2.293-0.992,3.01c-0.755,0.663-1.862,0.687-2.866,0.639c-4.283-0.203-8.534-1.065-12.821-0.952
						c-1.254,0.033-2.524,0.18-3.768,0.431v54.416c0,2.52,2.043,4.563,4.563,4.563h110.879
						C307.146,207.73,309.189,205.688,309.189,203.168z"/>
				</g>
				<path style="fill:#D313C2;" d="M306.01,221.933H192.416c-1.785,0-3.232-1.447-3.232-3.232l0,0c0-1.785,1.447-3.232,3.232-3.232
					H306.01c1.785,0,3.232,1.447,3.232,3.232l0,0C309.242,220.486,307.795,221.933,306.01,221.933z"/>
				<path style="fill:#D313C2;" d="M306.01,234.503H192.416c-1.785,0-3.232-1.447-3.232-3.232v0c0-1.785,1.447-3.232,3.232-3.232
					H306.01c1.785,0,3.232,1.447,3.232,3.232v0C309.242,233.056,307.795,234.503,306.01,234.503z"/>
				<path style="fill:#D313C2;" d="M248.964,240.609h-56.548c-1.785,0-3.232,1.447-3.232,3.232v0c0,1.785,1.447,3.232,3.232,3.232
					h56.548c1.785,0,3.232-1.447,3.232-3.232v0C252.197,242.056,250.75,240.609,248.964,240.609z"/>
				<g>
					<path style="fill:#D313C2;" d="M304.376,306.057H194.05c-2.688,0-4.866-2.179-4.866-4.866v-1.883
						c0-2.688,2.179-4.866,4.866-4.866h110.326c2.688,0,4.866,2.179,4.866,4.866v1.883
						C309.242,303.879,307.063,306.057,304.376,306.057z"/>
					<g>
						<g>
							<circle style="fill:#FFB159;" cx="199.225" cy="275.813" r="10.121"/>
						</g>
						<g>
							<circle style="fill:#4037FF;" cx="247.947" cy="275.813" r="10.121"/>
						</g>
						<g>
							<circle style="fill:#D313C2;" cx="296.669" cy="275.813" r="10.121"/>
						</g>
					</g>
				</g>
				<g>
					<path style="fill:#452EC1;" d="M204.139,142.85l-0.1-0.962l-1.013-0.193c0.156-0.815,0.156-0.815,4.19-0.912
						c1.946-0.046,4.539-0.099,7.131-0.148c5.181-0.099,10.36-0.185,10.36-0.185l0.033,1.968
						C216.867,142.549,204.883,142.772,204.139,142.85z"/>
				</g>
				<path style="fill:#FFFFFF;" d="M280.726,137.87v-0.864c0-15.091-12.234-27.325-27.325-27.325h-8.108
					c-15.091,0-27.325,12.234-27.325,27.325v11.542c0,15.091,12.234,27.325,27.325,27.325h8.108
					c11.087,0,20.624-6.607,24.909-16.094c0.779,0.163,1.586,0.253,2.416,0.253c6.313,0,11.43-4.961,11.43-11.081
					S287.038,137.87,280.726,137.87z"/>
				<path style="fill:#FFB159;" d="M229.816,152.902c0.066,4.103,2.878,7.407,6.344,7.407c3.466,0,6.278-3.304,6.344-7.407H229.816z
					"/>
				<g>
					<path style="fill:#D313C2;" d="M274.768,114.869c-4.79-4.035-10.628-6.759-16.751-8.023c-2.875-0.594-5.565-0.786-8.462-0.455
						c-1.982,0.226-7.213-0.363-8.571,1.043c-0.165,0.17-0.227,0.412-0.284,0.642c-1.453,5.888-1.656,10.521,0.788,16.301
						c2.076,4.911,5.475,9.288,9.718,12.516c8.785,6.685,20.357,8.814,31.378,8.173c1.027-4.869,1.22-9.912,0.567-14.845
						c-0.362-2.731-0.991-5.456-2.222-7.921C279.481,119.401,277.246,116.957,274.768,114.869z"/>
				</g>
				<path style="fill:#FFFFFF;" d="M233.152,189.388c0,0-27.086,2.484-32.611,18.342h75.715v-38.98h-39.319L233.152,189.388z"/>
				<g>
					<path style="fill:#D313C2;" d="M285.702,150.629c-0.296-0.43-0.526-0.905-0.669-1.41c-0.498-1.76-0.024-3.658-0.347-5.458
						c-0.668-3.723-5.177-6.565-8.56-4.658c-3.603,2.031-6.197,5.87-7.437,9.744c-1.827,5.707-1.346,11.863-0.845,17.835
						c-9.701,0.014-18.789,1.33-25.622,8.873c-5.685,6.276-8.031,15.555-5.53,23.645c-3.084,0.885-5.536,3.361-6.979,6.226
						c-0.375,0.745-0.687,1.517-0.951,2.305h75.865c2.52,0,4.563-2.043,4.563-4.563v-49.94c-3.114-1.16-5.814-2.967-8.888-3.247
						c-1.285-0.117-2.636,0.033-4.109,0.609c-2.017,0.788-3.853,2.223-6.016,2.328c-4.568,0.22-6.119-4.43-4.763-8.177
						c0.724-2,2.247-3.811,2.155-5.936c-0.081-1.871-1.405-3.429-2.059-5.184c-0.525-1.409-0.623-2.974-1.337-4.298
						c-0.697-1.294-1.918-2.229-3.203-2.942c-1.504-0.835-3.145-1.422-4.836-1.73"/>
				</g>
				<g>
					<g>
						<path style="fill:#452EC1;" d="M218.273,160.211c-8.566,0-15.535-6.969-15.535-15.535c0-8.566,6.969-15.535,15.535-15.535
							c8.566,0,15.535,6.969,15.535,15.535C233.808,153.242,226.839,160.211,218.273,160.211z M218.273,131.11
							c-7.481,0-13.566,6.086-13.566,13.566s6.085,13.566,13.566,13.566s13.566-6.086,13.566-13.566S225.754,131.11,218.273,131.11z
							"/>
					</g>
					<g>
						<path style="fill:#452EC1;" d="M254.09,160.211c-8.566,0-15.535-6.969-15.535-15.535c0-8.566,6.969-15.535,15.535-15.535
							c8.566,0,15.535,6.969,15.535,15.535C269.625,153.242,262.656,160.211,254.09,160.211z M254.09,131.11
							c-7.481,0-13.566,6.086-13.566,13.566s6.085,13.566,13.566,13.566s13.566-6.086,13.566-13.566S261.571,131.11,254.09,131.11z"
							/>
					</g>
					<g>
						<path style="fill:#452EC1;" d="M296.731,139.743c-0.401,0-0.777-0.247-0.924-0.645c-2.297-6.257-21.704-2.8-28.988-0.94
							c-0.527,0.136-1.063-0.183-1.197-0.71c-0.135-0.527,0.184-1.062,0.71-1.197c0.068-0.018,6.92-1.754,14.064-2.422
							c9.987-0.935,15.796,0.61,17.257,4.591c0.187,0.51-0.074,1.076-0.584,1.263C296.958,139.724,296.843,139.743,296.731,139.743z
							"/>
					</g>
					<g>
						<path style="fill:#452EC1;" d="M232.645,143.388c-0.184,0-0.369-0.051-0.534-0.159c-0.456-0.296-0.586-0.905-0.29-1.361
							c0.059-0.09,1.458-2.209,3.832-2.419c1.622-0.146,3.236,0.624,4.783,2.282c0.371,0.397,0.35,1.02-0.047,1.391
							c-0.399,0.371-1.021,0.351-1.391-0.048c-1.113-1.192-2.172-1.751-3.172-1.665c-1.406,0.124-2.344,1.515-2.354,1.529
							C233.283,143.23,232.967,143.388,232.645,143.388z"/>
					</g>
				</g>
				<g style="opacity:0.31;">
					<path style="fill:#FFFFFF;" d="M314.984,82.711h-6.842c-3.837,28.545-12.403,56.372-29.862,78.945
						c-25.715,33.249-66.376,50.09-101.61,73.346v82.22c0,4.12,3.34,7.46,7.46,7.46h130.854c4.12,0,7.46-3.34,7.46-7.46V90.171
						C322.443,86.051,319.103,82.711,314.984,82.711z"/>
				</g>
			</g>
		</g>
		<g>
			<path style="fill:#EFBAAC;" d="M346.859,461.142c4.032,0.008,8.063,0.015,12.095,0.023
				c-7.665-20.434-12.806-41.284-15.843-62.874c-2.944-20.932,1.391-43.643,6.499-63.995c4.187-16.68,9.308-33.213,11.674-50.29
				c1.723-12.435,3.689-31.827,0.566-43.837c-1.626-6.254-4.909-11.93-8.154-17.519c-5.991-10.316-14.902-15.3-19.116-26.642
				c-2.951-7.942-6.901-15.512-11.73-22.479c-10.209-14.723-20.143-0.713-22.463,11.43c-3.524,18.453-0.653,38.064,8.015,54.732
				c1.682,3.234,3.597,6.422,4.367,9.985c1.178,5.452-0.481,11.156-3.019,16.122c-5.222,10.215-13.94,18.112-21.297,26.916
				c-11.062,13.236-19.296,29.09-22.131,46.106s-0.001,35.197,9.275,49.74"/>
		</g>
		<g style="opacity:0.34;">
			<path style="fill:#FFFFFF;" d="M326.31,198.418c1.955,1.657,4.466,2.782,7.025,2.639c1.142-0.063,2.236-0.375,3.291-0.815
				c-0.759-1.378-1.453-2.839-2.047-4.437c-2.943-7.921-6.88-15.471-11.692-22.422c-0.003,0.001-0.007,0.001-0.01,0.002
				c-1.764,0.44-3.548,1.269-4.519,2.806c-0.751,1.19-0.92,2.658-0.885,4.065c0.107,4.318,1.933,8.412,4.12,12.136
				C322.892,194.603,324.355,196.761,326.31,198.418z"/>
		</g>
		<g>
			<g>
				<path style="fill:#EFBAAC;" d="M184.965,111.568c-3.352-3.741-7.273-6.714-12.462-7.736c-7.968-1.569-18.5,1.311-22.356,9.049
					c-3.798,7.62-5.611,15.807-2.609,24.11c4.773,13.201,14.442,24.105,24.167,33.931c7.892,7.974,15.871,16.069,25.071,22.594
					c5.307,3.763,15.817,8.851,20.831,2.785c11.156-13.5,0.162-34.695-7.797-46.701c-5.169-7.796-8.6-16.147-14.3-23.65
					C192.026,121.366,188.884,115.942,184.965,111.568z"/>
			</g>
			<g style="opacity:0.34;">
				<path style="fill:#FFFFFF;" d="M213.574,173.89c-1.308-3.094-3-5.522-6.555-5.08c-3.678,0.457-7.153,2.587-9.824,4.907
					c-0.645,0.56-1.278,1.188-1.564,1.993c-0.456,1.284,0.066,2.695,0.666,3.919c2.505,5.11,7.032,12.614,13.716,11.909
					C218.709,190.619,215.881,179.345,213.574,173.89z"/>
			</g>
		</g>
		<g>
			<g>
				<path style="fill:#EFBAAC;" d="M157.636,162.462c-0.539-0.369-1.08-0.726-1.623-1.069c-11.799-7.458-24.091-0.803-29.608,11.347
					c-3.763,8.286,0.161,19.097,4.383,26.584c3.989,7.076,9.449,13.91,14.894,19.91c10.059,11.083,22.285,20.879,36.122,26.791
					c5.393,2.304,10.137,4.722,15.919,1.522c5.355-2.964,7.437-8.548,6.388-14.336c-2.971-16.396-14.286-33.916-23.775-47.307
					C174.45,177.595,166.276,168.382,157.636,162.462z"/>
			</g>
			<g style="opacity:0.34;">
				<path style="fill:#FFFFFF;" d="M192.12,222.7c-1.95-2.735-4.129-4.737-7.503-3.532c-3.49,1.247-6.419,4.082-8.521,6.927
					c-0.508,0.687-0.989,1.437-1.093,2.285c-0.166,1.352,0.651,2.616,1.502,3.679c2.906,3.629,6.99,7.433,11.452,9.087
					c6.403,2.373,10.98-3.444,8.736-9.702C195.579,228.338,194.035,225.386,192.12,222.7z"/>
			</g>
		</g>
		<path style="opacity:0.34;fill:#EFBAAC;" d="M356.548,453.676c-5.254-12.581-9.29-25.711-11.813-39.497
			c-50.614,9.677-133.201,10.747-159.64,10.833c0.757,1.171,1.489,2.359,2.163,3.588c11.087,20.233,20.242,40.044,26.243,60.611
			l34.445-3.65L356.548,453.676z"/>
		<g>
			<path style="fill:#9ADAC7;" d="M397.947,500c-20.93-35.887-44.111-82.447-44.111-82.447l-164.125,34.474L201.729,500H397.947z"/>
			<path style="fill:#9C1CA0;" d="M200.507,495.122l0.371,1.481c26.548-5.051,59.506-11.567,95.144-19.014
				c29.2-6.107,56.496-12.065,79.9-17.323c-0.269-0.505-0.536-1.007-0.803-1.509c-23.334,5.072-50.482,10.899-79.487,16.966
				C259.967,483.175,227.017,489.835,200.507,495.122z"/>
			<circle style="fill:#FFFFFF;" cx="341.545" cy="445.008" r="11.961"/>
			<circle style="fill:#9C1CA0;" cx="341.545" cy="445.008" r="8.648"/>
		</g>
		<g>
			<g>
				<path style="fill:#4037FF;" d="M45.457,160.048L87.959,145.2c7.893-2.757,16.526,1.406,19.283,9.298l8.36,23.93
					c2.757,7.893-1.406,16.526-9.298,19.283l-29.29,10.232l-4.619,11.387c-0.572,1.41-2.585,1.36-3.086-0.076l-2.683-7.681
					l-2.823,0.986c-7.893,2.757-16.526-1.406-19.283-9.298l-8.36-23.93C33.402,171.439,37.565,162.805,45.457,160.048z"/>
				<g>
					<circle style="fill:#FFB159;" cx="76.007" cy="179.581" r="18.873"/>
					<path style="fill:#D313C2;" d="M66.249,180.227c0.03,0.093,0.051,0.187,0.084,0.28c1.89,5.41,7.412,8.403,12.332,6.684
						s7.378-7.499,5.488-12.909c-0.033-0.093-0.074-0.18-0.109-0.271L66.249,180.227z"/>
					<path style="fill:#4037FF;" d="M83.753,182.555c-1.884-1.743-4.643-2.416-7.235-1.51c-2.592,0.906-4.331,3.15-4.72,5.687
						c2.133,1.025,4.564,1.263,6.868,0.459C80.969,186.386,82.723,184.685,83.753,182.555z"/>
					<g>
						
							<ellipse transform="matrix(0.944 -0.3298 0.3298 0.944 -53.9148 31.827)" style="fill:#D313C2;" cx="66.845" cy="174.814" rx="1.284" ry="1.998"/>
						
							<ellipse transform="matrix(0.944 -0.3298 0.3298 0.944 -51.6275 35.9729)" style="fill:#D313C2;" cx="80.208" cy="170.146" rx="1.284" ry="1.998"/>
					</g>
				</g>
			</g>
			<g>
				<path style="fill:#FFB159;" d="M132.412,48.681L79.758,60.054c-9.778,2.112-15.993,11.75-13.881,21.528l6.403,29.646
					c2.112,9.778,11.75,15.993,21.528,13.881l36.286-7.837l11.822,8.741c1.464,1.082,3.488-0.225,3.103-2.004l-2.055-9.516
					l3.498-0.755c9.778-2.112,15.993-11.75,13.881-21.528l-6.403-29.646C151.829,52.784,142.19,46.57,132.412,48.681z"/>
				<path style="fill:#D313C2;" d="M137.43,74.591c-2.875-13.31-23.872-10.47-24.112,5.228c-6.697-14.2-26.995-8.121-24.12,5.189
					c2.882,13.344,15.922,21.072,29.782,21.361l0.008,0.035c0.022-0.01,0.043-0.022,0.065-0.032c0.024,0,0.048,0.002,0.073,0.002
					l-0.008-0.035C131.624,100.356,140.312,87.935,137.43,74.591z"/>
			</g>
			<g>
				<path style="fill:#FFB159;" d="M364.279,231.589l55.509,9.156c10.308,1.7,17.286,11.435,15.586,21.744l-5.156,31.254
					c-1.7,10.308-11.435,17.286-21.744,15.586l-38.254-6.31l-11.883,9.725c-1.471,1.204-3.649-0.055-3.34-1.931l1.655-10.032
					l-3.687-0.608c-10.308-1.7-17.286-11.435-15.586-21.744l5.156-31.254C344.236,236.867,353.971,229.889,364.279,231.589z"/>
				<g>
					<path style="fill:#4037FF;" d="M408.446,258.156l-38.853-6.409c-2.441-0.403-4.746,1.25-5.148,3.69l-3.903,23.664
						c-0.403,2.441,1.25,4.746,3.69,5.148l38.853,6.409c2.441,0.403,4.746-1.25,5.148-3.69l3.903-23.664
						C412.539,260.863,410.886,258.558,408.446,258.156z"/>
					<path style="fill:#FFB159;" d="M406.74,289.603l-13.829-18.92l18.577-10.491c-0.247-0.391-0.551-0.738-0.907-1.037
						L387.303,272.3c-0.729,0.412-1.659,0.254-2.214-0.375l-17.593-20.004c-0.448,0.145-0.876,0.343-1.254,0.616l14.093,16.025
						l-19.226,13.514c0.091,0.156,0.182,0.311,0.291,0.455l19.293-13.561l3.383,3.846c0.489,0.557,1.147,0.903,1.843,1.018
						c0.687,0.113,1.412,0,2.048-0.359l4.471-2.525l13.88,18.99C406.468,289.839,406.603,289.721,406.74,289.603z"/>
				</g>
			</g>
			<g>
				<path style="fill:#4037FF;" d="M413.146,148.737l-42.907,4.764c-7.968,0.885-13.71,8.061-12.825,16.029l2.682,24.158
					c0.885,7.968,8.061,13.71,16.029,12.825l29.569-3.283l8.711,7.934c1.078,0.982,2.799,0.106,2.638-1.344l-0.861-7.755l2.85-0.316
					c7.968-0.885,13.71-8.061,12.825-16.029l-2.682-24.158C428.291,153.594,421.114,147.852,413.146,148.737z"/>
				<path style="fill:#D313C2;" d="M407.207,189.764l-20.65,2.293c-3.674,0.408-6.982-2.239-7.39-5.913l-1.348-12.142
					c-0.408-3.674,2.24-6.982,5.913-7.39l20.65-2.293c3.674-0.408,6.982,2.239,7.39,5.913l1.348,12.142
					C413.528,186.047,410.88,189.356,407.207,189.764z"/>
				<path style="fill:#FFEDFF;" d="M393.277,172.412l6.674,3.59c0.974,0.524,1.123,1.861,0.287,2.586l-5.724,4.967
					c-0.962,0.835-2.467,0.247-2.608-1.02l-0.95-8.557C390.816,172.712,392.155,171.808,393.277,172.412z"/>
			</g>
			<g>
				<path style="fill:#D313C2;" d="M364.926,59.338l51.11,13.11c9.491,2.435,15.212,12.102,12.777,21.594l-7.382,28.777
					c-2.435,9.491-12.102,15.212-21.594,12.777l-35.222-9.035l-11.9,8.111c-1.473,1.004-3.405-0.351-2.962-2.078l2.369-9.237
					l-3.395-0.871c-9.491-2.435-15.212-12.102-12.777-21.594l7.382-28.777C345.767,62.624,355.435,56.903,364.926,59.338z"/>
				<g>
					<path style="fill:#FFB159;" d="M366.19,88.675c1.438-0.742,3.156-0.041,4.676,0.515c2.452,0.896,5.046,1.401,7.655,1.488
						c1.365,0.046,2.761-0.027,4.036-0.515c5.081-1.945,6.048-7.293,7.449-11.797c0.616-1.979,2.63-3.648,4.324-1.946
						c1.799,1.807,1.453,6.289,1.315,8.553c-0.145,2.382-0.322,4.872-1.564,6.91c2.244,0.421,6.693,0.941,8.878,1.649
						c1.389,0.45,3.154,1.558,3.19,3.25c0.048,2.264-2.279,3.191-4.007,3.941c1.914,0.397,3.322,2.447,3.005,4.376
						c-0.296,1.804-2.947,2.929-4.552,3.239c1.201,0.941,2.316,2.21,2.389,3.734c0.052,1.089-0.471,2.172-1.306,2.874
						c-0.834,0.702-1.953,1.03-3.042,0.977c1.203,1.724,1.551,3.915-0.475,5.131c-3.108,1.866-6.249-0.337-9.204-1.289
						c-3.593-1.157-7.329-1.937-10.746-3.588c-2.544-1.23-4.197-3.234-6.341-4.904c-1.09-0.849-2.377-1.424-3.724-1.716
						c-1.375-0.299-2.962,0.233-4.239-0.101c-1.023-0.267-1.173-0.893-1.853-1.6c-0.996-1.036-1.787-1.268-3.172-1.551"/>
				</g>
				<path style="fill:#4037FF;" d="M364.003,112.023l-4.071-1.089c-2.324-0.622-3.704-3.01-3.082-5.333l4.882-18.245
					c0.622-2.324,3.01-3.704,5.333-3.082l4.071,1.089c2.324,0.622,3.704,3.01,3.082,5.333l-4.882,18.245
					C368.715,111.265,366.327,112.644,364.003,112.023z"/>
			</g>
			<g>
				<path style="fill:#FFB159;" d="M151.016,238.602l-45.068-12.176c-8.369-2.261-16.987,2.69-19.248,11.06l-6.856,25.375
					c-2.261,8.369,2.69,16.987,11.06,19.248l31.058,8.391l5.629,11.431c0.697,1.415,2.775,1.213,3.186-0.31l2.201-8.145l2.994,0.809
					c8.369,2.261,16.987-2.69,19.248-11.06l6.856-25.375C164.337,249.481,159.385,240.863,151.016,238.602z"/>
				<g>
					<circle style="fill:#4037FF;" cx="105.287" cy="256.474" r="3.923"/>
					<circle style="fill:#4037FF;" cx="120.871" cy="260.684" r="3.923"/>
					<circle style="fill:#4037FF;" cx="136.454" cy="264.894" r="3.923"/>
				</g>
			</g>
		</g>
		<g>
			<g>
				<path style="fill:#FFB159;" d="M432.408,134.262c4.514,0,4.514-7,0-7S427.893,134.262,432.408,134.262L432.408,134.262z"/>
			</g>
			<g>
				<path style="fill:#FFB159;" d="M485.266,190.158c4.514,0,4.514-7,0-7S480.752,190.158,485.266,190.158L485.266,190.158z"/>
			</g>
			<g>
				<path style="fill:#FFB159;" d="M52.676,286.762c4.514,0,4.514-7,0-7S48.162,286.762,52.676,286.762L52.676,286.762z"/>
			</g>
			<g>
				<path style="fill:#FFB159;" d="M26.551,131.831c4.514,0,4.514-7,0-7S22.036,131.831,26.551,131.831L26.551,131.831z"/>
			</g>
			<g>
				<path style="fill:#FFB159;" d="M103.712,137.907c4.514,0,4.514-7,0-7C99.198,130.907,99.198,137.907,103.712,137.907
					L103.712,137.907z"/>
			</g>
			<g>
				<path style="fill:#FFB159;" d="M166.899,49.809c4.514,0,4.514-7,0-7S162.385,49.809,166.899,49.809L166.899,49.809z"/>
			</g>
			<g>
				<path style="fill:#FFB159;" d="M317.577,21.254c4.514,0,4.514-7,0-7C313.063,14.254,313.063,21.254,317.577,21.254
					L317.577,21.254z"/>
			</g>
			<g>
				<path style="fill:#FFB159;" d="M360.714,47.379c4.514,0,4.514-7,0-7C356.2,40.379,356.2,47.379,360.714,47.379L360.714,47.379z"
					/>
			</g>
			<g>
				<path style="fill:#FFB159;" d="M130.445,371.822c4.514,0,4.514-7,0-7C125.931,364.822,125.931,371.822,130.445,371.822
					L130.445,371.822z"/>
			</g>
			<g>
				<path style="fill:#FFB159;" d="M78.194,371.214c4.514,0,4.514-7,0-7S73.68,371.214,78.194,371.214L78.194,371.214z"/>
			</g>
			<g>
				<path style="fill:#FFB159;" d="M394.131,376.075c4.514,0,4.514-7,0-7C389.616,369.075,389.616,376.075,394.131,376.075
					L394.131,376.075z"/>
			</g>
			<g>
				<path style="fill:#FFB159;" d="M464.609,311.672c4.514,0,4.514-7,0-7C460.095,304.672,460.095,311.672,464.609,311.672
					L464.609,311.672z"/>
			</g>
			<g>
				<path style="fill:#FFB159;" d="M15.007,318.355c4.514,0,4.514-7,0-7S10.493,318.355,15.007,318.355L15.007,318.355z"/>
			</g>
			<g>
				<path style="fill:#FFB159;" d="M248.314,36.734c-0.203,0-0.405,0-0.608,0c-1.908,0-3.5,1.592-3.5,3.5s1.592,3.5,3.5,3.5
					c0.203,0,0.405,0,0.608,0c1.908,0,3.5-1.592,3.5-3.5S250.222,36.734,248.314,36.734L248.314,36.734z"/>
			</g>
			<g>
				<path style="fill:#FFB159;" d="M445.774,77.15c4.514,0,4.514-7,0-7S441.26,77.15,445.774,77.15L445.774,77.15z"/>
			</g>
		</g>
		<g>
			<path style="fill:#FFFFFF;" d="M277.005,392.897c0.253-0.128-1.735-4.071-4.188-10.718c-2.448-6.627-5.218-16.096-5.974-26.845
				c-0.766-10.746,0.823-20.5,2.852-27.246c1.997-6.781,4.102-10.683,3.827-10.819c-0.096-0.051-0.723,0.866-1.67,2.633
				c-0.951,1.765-2.158,4.416-3.325,7.817c-2.368,6.77-4.197,16.749-3.412,27.736c0.774,10.987,3.794,20.586,6.562,27.171
				c1.384,3.305,2.675,5.901,3.645,7.651C276.289,392.027,276.904,392.95,277.005,392.897z"/>
		</g>
	</g>
</g>
</svg>
